<svg xmlns="http://www.w3.org/2000/svg" xmlns:xlink="http://www.w3.org/1999/xlink" preserveAspectRatio="xMidYMid" width="1000" height="86" viewBox="0 0 1000 86">
  <defs>
    <style>
      .cls-1 {
        fill: #ed941a;
      }

      .cls-1, .cls-2 {
        fill-rule: evenodd;
      }

      .cls-2 {
        fill: #2084b9;
      }
    </style>
  </defs>
  <g>
    <path d="M986.208,65.376 L986.208,40.661 C986.208,34.039 984.063,30.215 979.493,30.215 C976.136,30.215 973.898,32.453 972.872,35.158 C972.592,36.184 972.406,37.583 972.406,38.702 L972.406,65.376 L958.603,65.376 L958.603,39.821 C958.603,34.132 956.551,30.215 951.981,30.215 C948.344,30.215 946.199,33.013 945.360,35.251 C944.893,36.371 944.800,37.676 944.800,38.889 L944.800,65.376 L930.997,65.376 L930.997,34.319 C930.997,28.630 930.811,23.873 930.624,19.769 L942.655,19.769 L943.215,26.018 L943.494,26.018 C945.453,23.034 949.556,18.743 957.297,18.743 C963.266,18.743 967.836,21.821 969.794,26.578 L969.981,26.578 C971.753,24.153 973.711,22.288 975.950,20.982 C978.468,19.583 981.265,18.743 984.623,18.743 C993.389,18.743 1000.011,24.899 1000.011,38.516 L1000.011,65.376 L986.208,65.376 ZM897.333,47.096 C897.799,52.972 903.581,55.770 910.203,55.770 C915.052,55.770 918.969,55.117 922.793,53.811 L924.658,63.418 C919.995,65.376 914.306,66.309 908.151,66.309 C892.669,66.309 883.810,57.355 883.810,43.086 C883.810,31.521 891.084,18.743 906.845,18.743 C921.581,18.743 927.176,30.215 927.176,41.500 C927.176,43.925 926.897,46.070 926.710,47.096 L897.333,47.096 ZM906.099,28.163 C900.037,28.163 897.612,33.666 897.239,37.397 L914.026,37.397 C914.026,33.946 912.534,28.163 906.099,28.163 ZM873.180,46.723 C873.180,52.226 874.578,54.744 878.775,54.744 C880.734,54.744 881.666,54.651 882.972,54.371 L883.065,65.096 C881.293,65.749 877.843,66.309 873.926,66.309 C869.356,66.309 865.532,64.723 863.201,62.392 C860.589,59.687 859.284,55.304 859.284,48.868 L859.284,30.215 L853.222,30.215 L853.222,19.769 L859.284,19.769 L859.284,11.189 L873.180,7.365 L873.180,19.769 L883.345,19.769 L883.345,30.215 L873.180,30.215 L873.180,46.723 ZM839.049,28.630 C835.598,28.630 833.640,30.029 833.640,32.267 C833.640,34.412 835.412,35.625 841.007,37.490 C849.681,40.474 853.225,44.858 853.318,51.480 C853.318,60.060 846.696,66.309 833.640,66.309 C827.671,66.309 822.355,64.910 818.904,63.045 L821.422,52.972 C824.034,54.557 829.443,56.329 833.640,56.329 C837.930,56.329 839.702,54.931 839.702,52.599 C839.702,50.267 838.303,49.055 833.080,47.376 C823.567,44.205 819.930,39.075 820.023,33.759 C820.023,25.179 827.298,18.743 838.583,18.743 C843.898,18.743 848.562,20.049 851.359,21.448 L848.935,31.148 C846.883,30.122 842.873,28.630 839.049,28.630 ZM795.032,79.739 C790.182,84.029 784.959,85.615 781.322,85.988 L778.338,74.050 C780.110,73.677 782.348,72.838 784.493,71.625 C786.638,70.506 789.063,68.174 790.368,65.936 C790.835,65.190 791.115,64.444 791.115,63.884 C791.115,63.324 791.021,62.672 790.555,61.552 L773.768,19.769 L789.529,19.769 L796.337,42.246 C797.083,44.858 798.016,48.309 798.575,50.734 L798.855,50.734 C799.508,48.215 800.254,44.858 800.907,42.153 L806.503,19.769 L821.704,19.769 L811.073,49.801 C804.544,67.988 800.161,75.169 795.032,79.739 ZM756.984,13.147 C750.829,13.147 747.844,16.039 747.844,19.210 C747.844,23.220 751.295,24.992 759.502,28.070 C770.600,32.174 775.730,37.956 775.730,46.816 C775.730,57.355 767.709,66.309 750.456,66.309 C743.275,66.309 736.187,64.350 732.643,62.392 L735.534,50.734 C739.264,52.692 745.233,54.651 751.295,54.651 C757.823,54.651 761.274,51.946 761.274,47.842 C761.274,43.925 758.290,41.687 750.735,39.075 C740.290,35.345 733.389,29.562 733.389,20.422 C733.389,9.697 742.435,1.583 757.170,1.583 C764.352,1.583 769.481,2.982 773.212,4.754 L770.041,16.132 C767.616,14.920 763.046,13.147 756.984,13.147 ZM686.762,47.096 C687.228,52.972 693.010,55.770 699.632,55.770 C704.482,55.770 708.399,55.117 712.222,53.811 L714.088,63.418 C709.424,65.376 703.736,66.309 697.580,66.309 C682.099,66.309 673.239,57.355 673.239,43.086 C673.239,31.521 680.513,18.743 696.275,18.743 C711.010,18.743 716.606,30.215 716.606,41.500 C716.606,43.925 716.326,46.070 716.139,47.096 L686.762,47.096 ZM695.528,28.163 C689.467,28.163 687.042,33.666 686.669,37.397 L703.456,37.397 C703.456,33.946 701.964,28.163 695.528,28.163 ZM663.635,29.749 C656.174,29.749 651.324,35.065 651.418,42.433 C651.418,50.827 657.013,55.210 663.915,55.210 C667.272,55.210 669.884,54.651 672.029,53.718 L673.707,64.164 C671.189,65.376 666.433,66.309 661.024,66.309 C646.288,66.309 636.869,57.262 636.869,42.992 C636.869,29.749 646.009,18.837 662.982,18.837 C666.713,18.837 670.816,19.490 673.800,20.609 L671.562,31.148 C669.884,30.402 667.365,29.749 663.635,29.749 ZM618.593,40.101 C618.593,34.226 616.541,30.215 611.412,30.215 C607.495,30.215 605.163,32.920 604.137,35.531 C603.764,36.464 603.671,37.770 603.671,39.075 L603.671,65.376 L589.495,65.376 L589.495,34.319 C589.495,28.630 589.309,23.873 589.122,19.769 L601.433,19.769 L602.085,26.111 L602.365,26.111 C604.230,23.127 608.800,18.743 616.448,18.743 C625.774,18.743 632.768,24.992 632.768,38.422 L632.768,65.376 L618.593,65.376 L618.593,40.101 ZM570.006,60.806 L569.726,60.806 C566.742,64.444 562.079,66.402 556.670,66.402 C547.437,66.402 541.934,59.687 541.934,52.412 C541.934,40.568 552.566,34.972 568.700,34.972 L568.700,34.412 C568.700,31.987 567.395,28.536 560.400,28.536 C555.737,28.536 550.794,30.122 547.810,31.894 L545.198,22.847 C548.369,21.075 554.618,18.743 562.918,18.743 C578.120,18.743 582.876,27.697 582.876,38.422 L582.876,54.371 C582.876,58.661 583.063,62.858 583.622,65.376 L570.845,65.376 L570.006,60.806 ZM569.167,43.832 C561.706,43.832 555.924,45.604 555.924,51.013 C555.924,54.651 558.348,56.423 561.519,56.423 C564.970,56.423 567.954,54.091 568.887,51.200 C569.073,50.454 569.167,49.614 569.167,48.775 L569.167,43.832 ZM524.031,40.101 C524.031,34.226 521.979,30.215 516.850,30.215 C512.933,30.215 510.602,32.920 509.576,35.531 C509.203,36.464 509.109,37.770 509.109,39.075 L509.109,65.376 L494.934,65.376 L494.934,34.319 C494.934,28.630 494.747,23.873 494.561,19.769 L506.871,19.769 L507.524,26.111 L507.804,26.111 C509.669,23.127 514.239,18.743 521.886,18.743 C531.212,18.743 538.207,24.992 538.207,38.422 L538.207,65.376 L524.031,65.376 L524.031,40.101 ZM461.269,47.096 C461.735,52.972 467.517,55.770 474.139,55.770 C478.989,55.770 482.906,55.117 486.729,53.811 L488.595,63.418 C483.931,65.376 478.242,66.309 472.087,66.309 C456.606,66.309 447.746,57.355 447.746,43.086 C447.746,31.521 455.020,18.743 470.781,18.743 C485.517,18.743 491.113,30.215 491.113,41.500 C491.113,43.925 490.833,46.070 490.646,47.096 L461.269,47.096 ZM470.035,28.163 C463.973,28.163 461.549,33.666 461.176,37.397 L477.963,37.397 C477.963,33.946 476.470,28.163 470.035,28.163 ZM437.116,46.723 C437.116,52.226 438.515,54.744 442.712,54.744 C444.670,54.744 445.603,54.651 446.908,54.371 L447.002,65.096 C445.230,65.749 441.779,66.309 437.862,66.309 C433.292,66.309 429.468,64.723 427.137,62.392 C424.525,59.687 423.220,55.304 423.220,48.868 L423.220,30.215 L417.158,30.215 L417.158,19.769 L423.220,19.769 L423.220,11.189 L437.116,7.365 L437.116,19.769 L447.281,19.769 L447.281,30.215 L437.116,30.215 L437.116,46.723 ZM400.933,40.101 C400.933,34.226 398.881,30.215 393.752,30.215 C389.835,30.215 387.503,32.920 386.478,35.531 C386.104,36.464 386.011,37.770 386.011,39.075 L386.011,65.376 L371.835,65.376 L371.835,34.319 C371.835,28.630 371.649,23.873 371.462,19.769 L383.773,19.769 L384.426,26.111 L384.706,26.111 C386.571,23.127 391.141,18.743 398.788,18.743 C408.114,18.743 415.109,24.992 415.109,38.422 L415.109,65.376 L400.933,65.376 L400.933,40.101 ZM358.035,14.173 L357.942,14.173 C353.465,14.173 350.574,11.002 350.574,7.085 C350.574,3.075 353.559,-0.003 358.128,-0.003 C362.698,-0.003 365.496,3.075 365.589,7.085 C365.589,11.002 362.698,14.173 358.035,14.173 ZM331.458,60.806 L331.179,60.806 C328.194,64.444 323.531,66.402 318.122,66.402 C308.889,66.402 303.387,59.687 303.387,52.412 C303.387,40.568 314.018,34.972 330.153,34.972 L330.153,34.412 C330.153,31.987 328.847,28.536 321.852,28.536 C317.189,28.536 312.246,30.122 309.262,31.894 L306.651,22.847 C309.822,21.075 316.070,18.743 324.370,18.743 C339.572,18.743 344.328,27.697 344.328,38.422 L344.328,54.371 C344.328,58.661 344.515,62.858 345.075,65.376 L332.298,65.376 L331.458,60.806 ZM330.619,43.832 C323.158,43.832 317.376,45.604 317.376,51.013 C317.376,54.651 319.801,56.423 322.972,56.423 C326.422,56.423 329.407,54.091 330.339,51.200 C330.526,50.454 330.619,49.614 330.619,48.775 L330.619,43.832 ZM285.765,41.314 C285.485,33.759 285.206,24.712 285.206,15.479 L285.019,15.479 C282.967,23.500 280.356,32.453 277.931,39.821 L270.284,64.350 L259.186,64.350 L252.471,40.008 C250.419,32.640 248.367,23.780 246.782,15.479 L246.595,15.479 C246.316,23.966 245.942,33.666 245.569,41.500 L244.357,65.376 L231.207,65.376 L235.217,2.515 L254.150,2.515 L260.305,23.500 C262.357,30.775 264.222,38.609 265.621,45.977 L265.994,45.977 C267.672,38.702 269.817,30.402 271.963,23.407 L278.584,2.515 L297.236,2.515 L300.594,65.376 L286.791,65.376 L285.765,41.314 ZM365.123,65.376 L350.947,65.376 L350.947,19.769 L365.123,19.769 L365.123,65.376 Z" class="cls-1"/>
    <path d="M189.897,66.402 L189.804,66.402 C176.467,66.402 166.208,57.635 166.208,42.899 C166.208,28.163 175.908,18.743 190.643,18.743 C204.539,18.743 213.865,28.350 213.865,42.153 C213.865,58.754 202.021,66.402 189.897,66.402 ZM190.177,28.909 C183.462,28.909 180.850,35.811 180.850,42.619 C180.850,50.360 184.115,56.236 190.083,56.236 L190.177,56.236 C195.772,56.236 199.223,50.734 199.223,42.526 C199.223,35.811 196.612,28.909 190.177,28.909 ZM140.751,66.402 L140.658,66.402 C127.322,66.402 117.063,57.635 117.063,42.899 C117.063,28.163 126.762,18.743 141.497,18.743 C155.393,18.743 164.720,28.350 164.720,42.153 C164.720,58.754 152.875,66.402 140.751,66.402 ZM141.031,28.909 C134.316,28.909 131.705,35.811 131.705,42.619 C131.705,50.360 134.969,56.236 140.938,56.236 L141.031,56.236 C146.627,56.236 150.077,50.734 150.077,42.526 C150.077,35.811 147.466,28.909 141.031,28.909 ZM115.667,51.480 C115.667,60.060 109.045,66.309 95.989,66.309 C90.020,66.309 84.704,64.910 81.253,63.045 L83.771,52.972 C86.383,54.557 91.792,56.329 95.989,56.329 C100.279,56.329 102.051,54.931 102.051,52.599 C102.051,50.267 100.652,49.055 95.429,47.376 C85.916,44.205 82.279,39.075 82.372,33.759 C82.372,25.179 89.647,18.743 100.932,18.743 C106.247,18.743 110.911,20.049 113.708,21.448 L111.284,31.148 C109.232,30.122 105.222,28.630 101.398,28.630 C97.947,28.630 95.989,30.029 95.989,32.267 C95.989,34.412 97.761,35.625 103.356,37.490 C112.030,40.474 115.574,44.858 115.667,51.480 ZM64.376,60.806 L64.096,60.806 C61.112,64.444 56.448,66.402 51.039,66.402 C41.806,66.402 36.304,59.687 36.304,52.412 C36.304,40.568 46.936,34.972 63.070,34.972 L63.070,34.412 C63.070,31.987 61.764,28.536 54.770,28.536 C50.107,28.536 45.164,30.122 42.179,31.894 L39.568,22.847 C42.739,21.075 48.987,18.743 57.288,18.743 C72.489,18.743 77.246,27.697 77.246,38.422 L77.246,54.371 C77.246,58.661 77.432,62.858 77.992,65.376 L65.215,65.376 L64.376,60.806 ZM63.536,43.832 C56.075,43.832 50.293,45.604 50.293,51.013 C50.293,54.651 52.718,56.423 55.889,56.423 C59.340,56.423 62.324,54.091 63.257,51.200 C63.443,50.454 63.536,49.614 63.536,48.775 L63.536,43.832 ZM13.177,28.536 L35.746,28.536 L35.746,40.101 L13.177,40.101 L13.177,65.376 L-0.999,65.376 L-0.999,2.515 L37.332,2.515 L37.332,14.173 L13.177,14.173 L13.177,28.536 Z" class="cls-2"/>
  </g>
</svg>
