<svg xmlns="http://www.w3.org/2000/svg" xmlns:xlink="http://www.w3.org/1999/xlink" preserveAspectRatio="xMidYMid" width="1000" height="113" viewBox="0 0 1000 113">
  <defs>
    <style>
      .cls-1 {
        fill: #2084b9;
      }

      .cls-1, .cls-2 {
        fill-rule: evenodd;
      }

      .cls-2 {
        fill: #ed941a;
      }
    </style>
  </defs>
  <g>
    <path d="M332.466,112.998 L332.303,112.998 C309.077,112.998 291.210,97.735 291.210,72.081 C291.210,46.426 308.102,30.026 333.765,30.026 C357.966,30.026 374.209,46.751 374.209,70.782 C374.209,99.684 353.581,112.998 332.466,112.998 ZM332.953,47.725 C321.259,47.725 316.711,59.740 316.711,71.593 C316.711,85.070 322.395,95.300 332.791,95.300 L332.953,95.300 C342.699,95.300 348.708,85.720 348.708,71.431 C348.708,59.740 344.160,47.725 332.953,47.725 ZM246.874,112.998 L246.712,112.998 C223.485,112.998 205.618,97.735 205.618,72.081 C205.618,46.426 222.510,30.026 248.173,30.026 C272.375,30.026 288.617,46.751 288.617,70.782 C288.617,99.684 267.989,112.998 246.874,112.998 ZM247.361,47.725 C235.667,47.725 231.119,59.740 231.119,71.593 C231.119,85.070 236.804,95.300 247.199,95.300 L247.361,95.300 C257.107,95.300 263.116,85.720 263.116,71.431 C263.116,59.740 258.569,47.725 247.361,47.725 ZM203.187,87.019 C203.187,101.957 191.655,112.836 168.916,112.836 C158.520,112.836 149.262,110.400 143.252,107.153 L147.638,89.617 C152.186,92.377 161.606,95.462 168.916,95.462 C176.387,95.462 179.473,93.026 179.473,88.967 C179.473,84.908 177.037,82.797 167.941,79.874 C151.374,74.354 145.039,65.423 145.202,56.168 C145.202,41.230 157.871,30.026 177.524,30.026 C186.782,30.026 194.903,32.300 199.776,34.735 L195.553,51.622 C191.980,49.836 184.996,47.238 178.336,47.238 C172.326,47.238 168.916,49.673 168.916,53.570 C168.916,57.305 172.002,59.416 181.747,62.663 C196.853,67.859 203.025,75.490 203.187,87.019 ZM113.858,103.256 L113.371,103.256 C108.174,109.588 100.052,112.998 90.632,112.998 C74.552,112.998 64.969,101.307 64.969,88.642 C64.969,68.021 83.485,58.279 111.584,58.279 L111.584,57.305 C111.584,53.083 109.310,47.075 97.129,47.075 C89.007,47.075 80.399,49.836 75.201,52.921 L70.653,37.171 C76.176,34.086 87.058,30.026 101.514,30.026 C127.989,30.026 136.273,45.614 136.273,64.287 L136.273,92.052 C136.273,99.521 136.598,106.828 137.572,111.212 L115.320,111.212 L113.858,103.256 ZM112.397,73.704 C99.403,73.704 89.332,76.789 89.332,86.207 C89.332,92.539 93.555,95.624 99.078,95.624 C105.087,95.624 110.285,91.565 111.909,86.532 C112.234,85.233 112.397,83.771 112.397,82.310 L112.397,73.704 ZM24.691,47.075 L63.997,47.075 L63.997,67.209 L24.691,67.209 L24.691,111.212 L0.002,111.212 L0.002,1.774 L66.759,1.774 L66.759,22.070 L24.691,22.070 L24.691,47.075 Z" class="cls-1"/>
    <path d="M973.999,111.212 L950.609,68.996 C944.112,57.142 936.803,43.179 931.606,30.351 L930.956,30.351 C931.768,44.965 932.093,60.390 932.093,78.251 L932.093,111.212 L909.354,111.212 L909.354,1.774 L938.265,1.774 L961.005,41.880 C967.502,53.408 973.836,67.047 978.871,79.387 L979.196,79.387 C977.734,64.936 977.247,50.161 977.247,33.599 L977.247,1.774 L999.987,1.774 L999.987,111.212 L973.999,111.212 ZM867.780,83.122 L836.270,83.122 L828.636,111.212 L802.973,111.212 L836.433,1.774 L868.755,1.774 L902.864,111.212 L876.227,111.212 L867.780,83.122 ZM857.223,41.392 C855.436,34.898 853.487,26.617 851.863,20.284 L851.376,20.284 C849.914,26.779 848.127,35.060 846.503,41.392 L839.843,64.612 L864.045,64.612 L857.223,41.392 ZM759.938,111.212 L750.680,64.124 C748.569,53.083 746.782,42.854 745.483,30.351 L745.158,30.351 C743.209,42.691 741.422,53.083 738.823,64.287 L728.428,111.212 L701.303,111.212 L675.315,1.774 L701.790,1.774 L710.074,46.751 C712.510,59.903 714.784,74.029 716.571,85.233 L716.896,85.233 C718.683,73.217 721.281,60.065 724.043,46.426 L733.301,1.774 L759.614,1.774 L768.385,47.887 C770.821,60.715 772.608,72.405 774.232,84.583 L774.557,84.583 C776.181,72.405 778.617,59.578 780.891,46.426 L789.825,1.774 L815.000,1.774 L786.738,111.212 L759.938,111.212 ZM680.027,76.789 L637.472,76.789 L637.472,60.390 L680.027,60.390 L680.027,76.789 ZM605.316,1.774 L630.005,1.774 L630.005,111.212 L605.316,111.212 L605.316,1.774 ZM596.390,79.225 C596.390,89.292 591.842,97.086 585.021,102.444 C577.062,108.776 563.743,112.349 541.978,112.349 C529.796,112.349 520.700,111.537 515.178,110.725 L515.178,3.398 C521.675,2.099 534.669,0.962 547.176,0.962 C562.281,0.962 571.539,2.423 579.498,7.132 C587.132,11.191 592.492,18.661 592.492,28.728 C592.492,38.307 586.807,47.238 574.625,51.947 L574.625,52.271 C587.132,55.519 596.390,65.099 596.390,79.225 ZM550.262,18.985 C544.739,18.985 541.653,19.310 539.704,19.797 L539.704,45.127 L547.825,45.127 C560.982,45.127 567.804,39.769 567.804,31.650 C567.804,23.369 561.469,18.985 550.262,18.985 ZM548.150,62.825 L539.704,62.825 L539.704,93.676 C542.140,94.163 545.064,94.163 549.287,94.163 C560.494,94.163 570.402,89.779 570.402,78.251 C570.402,67.209 560.494,62.825 548.150,62.825 ZM453.464,112.998 L453.302,112.998 C420.979,112.998 401.813,88.480 401.813,57.305 C401.813,24.506 422.928,-0.012 455.088,-0.012 C488.710,-0.012 507.064,25.155 507.064,55.356 C507.064,91.403 485.462,112.998 453.464,112.998 ZM454.601,19.635 C437.546,19.635 427.963,36.197 427.963,56.655 C427.963,77.276 437.871,93.351 454.439,93.351 L454.601,93.351 C471.331,93.351 480.914,77.601 480.914,56.168 C480.914,36.521 471.656,19.635 454.601,19.635 Z" class="cls-2"/>
  </g>
</svg>
